<svg xmlns="http://www.w3.org/2000/svg"><defs><style>.cls-1{fill:#fff;fill-rule:evenodd}</style><style>.cls-1{fill:#fff;fill-opacity:.99;fill-rule:evenodd}</style><style>.cls-1{fill:#fff;fill-rule:evenodd;filter:url(#filter)}</style><filter id="filter" x="540" y="1062" width="32" height="37" filterUnits="userSpaceOnUse"><feOffset result="offset" dx=".5" dy=".866" in="SourceAlpha"/><feGaussianBlur result="blur" stdDeviation="1.732"/><feFlood result="flood" flood-color="#313235" flood-opacity=".5"/><feComposite result="composite" operator="in" in2="blur"/><feBlend result="blend" in="SourceGraphic"/></filter><style>.search{fill:#fff;fill-rule:evenodd}</style></defs><symbol id="basket" viewBox="0 0 20.63 19.719"><path id="&#x41A;&#x43E;&#x440;&#x437;&#x438;&#x43D;&#x430;" class="cls-1" d="M1092.58 33.46l-1.21 8.912a2.025 2.025 0 0 1-1.88 1.635h-10.88a2.025 2.025 0 0 1-1.88-1.635l-1.47-10.287a3.738 3.738 0 0 1-.13-1.055H1073a1 1 0 0 1 0-2h4a.992.992 0 0 1 .1 1.98h13.97c1.1 0 1.77 1.131 1.51 2.45zm-13.85 8.518l-1.31-9h13.2l-.03.2-1.18 8.788a.033.033 0 0 0-.01.014h-10.67zm.52 3.009a1.874 1.874 0 1 1-1.88 1.874 1.874 1.874 0 0 1 1.88-1.874zm9 0a1.874 1.874 0 1 1-1.88 1.874 1.874 1.874 0 0 1 1.88-1.874z" transform="translate(-1072 -29.031)"/></symbol><symbol id="login" viewBox="0 0 20.063 19"><path id="&#x412;&#x445;&#x43E;&#x434;" class="cls-1" d="M973 32.968v-.96a3 3 0 0 1 3-3h11.059a3 3 0 0 1 3 3v12.978a3 3 0 0 1-3 3H976a3 3 0 0 1-3-3V44h2v2h13V31h-13v1.968h-2zm-3 8.046h6.029v2.743l7.027-5.3-7.027-5.3V35.9H970v5.114z" transform="translate(-970 -29)"/></symbol>
<symbol id="R" viewBox="0 0 32 37"><path id="P" class="cls-1" d="M541.644 1077.63h3.682v-14.49h8.889a32.467 32.467 0 0 1 7.253.5c3.637.95 6.409 4.22 6.409 9.31 0 5.82-3.727 8.87-7.091 9.59a30.542 30.542 0 0 1-6.253.46h-3.039v2.73h15.02v5.36h-15.02v3.91h-6.168v-3.91h-3.682v-5.36h3.682V1083h-3.682v-5.37zm9.85-9.09v9.05h2.358a13.828 13.828 0 0 0 4.662-.5 4.351 4.351 0 0 0-.864-8.32 24.478 24.478 0 0 0-4.207-.23h-1.949z" transform="translate(-540 -1062)"/></symbol>
<symbol id="search" viewBox="0 0 16.687 16.688"><path id="&#x41B;&#x443;&#x43F;&#x430;" class="search" d="M931.155 40.747h-.755l-.264-.261a6.212 6.212 0 1 0-.675.675l.263.262v.755l4.773 4.76 1.423-1.422zm-5.731 0a4.291 4.291 0 1 1 4.3-4.291 4.294 4.294 0 0 1-4.3 4.291z" transform="translate(-919.219 -30.25)"/></symbol></svg>
